<svg width="2513" height="2534" xmlns="http://www.w3.org/2000/svg" xmlns:xlink="http://www.w3.org/1999/xlink" overflow="hidden"><defs><clipPath id="clip0"><rect x="2536" y="194" width="2513" height="2534"/></clipPath></defs><g clip-path="url(#clip0)" transform="translate(-2536 -194)"><path d="M3796.94 194C4489.57 194 5049 767.06 5049 1465.48 5049 2154.94 4489.57 2728 3796.94 2728 3104.31 2728 2536 2154.94 2536 1465.48 2536 767.06 3104.31 194 3796.94 194M3796.94 247.724C3130.95 247.724 2589.28 793.922 2589.28 1465.48 2589.28 2128.08 3130.95 2674.28 3796.94 2674.28 4462.93 2674.28 5004.6 2128.08 5004.6 1465.48 5004.6 793.922 4462.93 247.724 3796.94 247.724" fill="#195294" fill-rule="evenodd"/><path d="M3351.77 2003C3271.81 1940.45 3209.62 1851.1 3165.19 1761.75 3120.77 1672.4 3103 1565.17 3103 1466.89 3103 1082.67 3413.96 761 3796 761 4178.04 761 4489 1082.67 4489 1466.89 4489 1565.17 4462.35 1672.4 4426.81 1761.75 4382.38 1851.1 4311.31 1940.45 4240.23 2003 4222.46 1985.13 4222.46 1985.13 4222.46 1985.13 4293.54 1922.58 4355.73 1842.17 4400.15 1752.81 4444.58 1663.46 4462.35 1565.17 4462.35 1466.89 4462.35 1091.6 4160.27 787.806 3796 787.806 3422.85 787.806 3129.65 1091.6 3129.65 1466.89 3129.65 1565.17 3147.42 1663.46 3191.85 1752.81 3227.38 1842.17 3289.58 1922.58 3369.54 1985.13L3351.77 2003Z" fill="#195294" fill-rule="evenodd"/><path d="M2722.6 1888 2665 1751.72 2693.8 1744.55 2917 1780.41 2881 1687.17 2909.8 1680 2953 1794.76 2924.2 1801.93 2715.4 1780.41 2751.4 1873.66 2722.6 1888Z" fill="#195294" fill-rule="evenodd"/><path d="M2802.11 2053 2794.95 2031.52 2888 1981.39 2852.21 1909.77 2759.16 1967.06 2752 1938.42 2959.58 1831 2981.05 1859.65 2880.84 1902.61 2916.63 1967.06 3002.53 1924.1 3024 1945.58 2802.11 2053Z" fill="#195294" fill-rule="evenodd"/><path d="M2909.74 2197 2831 2089.27 3031.42 1960 3103 2067.73 3088.68 2082.09 3024.26 2003.09 2959.84 2039 3017.11 2110.82 2995.63 2125.18 2945.53 2053.36 2873.95 2103.64 2924.05 2182.64 2909.74 2197Z" fill="#195294" fill-rule="evenodd"/><path d="M3074.5 2369 3053 2347.48 3203.5 2161 3225 2182.52 3074.5 2369Z" fill="#195294" fill-rule="evenodd"/><path d="M3189.9 2448.4 3225.76 2383.6 3189.9 2362 3132.52 2412.4 3111 2398 3283.14 2218 3319 2232.4 3225.76 2470 3189.9 2448.4ZM3247.28 2347.6 3283.14 2268.4 3275.97 2261.2 3211.41 2333.2 3247.28 2347.6Z" fill="#195294" fill-rule="evenodd"/><path d="M3369 2541 3347.44 2519.46 3361.81 2347.15 3289.94 2490.74 3254 2476.38 3369 2261 3397.75 2268.18 3390.56 2440.49 3462.44 2296.9 3484 2311.26 3369 2541Z" fill="#195294" fill-rule="evenodd"/><path d="M3538.21 2584C3520.84 2584 3520.84 2584 3520.84 2584 3520.84 2557.31 3520.84 2557.31 3520.84 2557.31 3512.16 2566.21 3512.16 2566.21 3503.47 2566.21 3494.79 2566.21 3486.11 2566.21 3477.42 2566.21 3460.05 2557.31 3451.37 2548.41 3442.68 2530.62 3434 2503.93 3434 2477.24 3442.68 2441.66 3460.05 2397.17 3468.74 2370.48 3486.11 2352.69 3512.16 2334.9 3538.21 2326 3555.58 2334.9 3581.63 2343.79 3599 2379.38 3590.32 2423.86 3564.26 2423.86 3564.26 2423.86 3564.26 2423.86 3572.95 2406.07 3564.26 2370.48 3546.89 2361.59 3529.53 2361.59 3512.16 2361.59 3503.47 2379.38 3494.79 2388.28 3486.11 2414.97 3477.42 2450.55 3468.74 2477.24 3460.05 2503.93 3468.74 2512.83 3468.74 2530.62 3477.42 2539.52 3486.11 2539.52 3494.79 2548.41 3512.16 2548.41 3512.16 2539.52 3520.84 2530.62 3529.53 2521.72 3538.21 2503.93 3538.21 2486.14 3538.21 2486.14 3538.21 2486.14 3503.47 2477.24 3503.47 2477.24 3503.47 2477.24 3512.16 2450.55 3512.16 2450.55 3512.16 2450.55 3572.95 2477.24 3572.95 2477.24 3572.95 2477.24L3538.21 2584Z" fill="#195294" fill-rule="evenodd"/><path d="M3871 2528.78C3871 2555.11 3861.93 2572.67 3852.87 2581.44 3834.73 2599 3825.67 2599 3798.47 2599 3771.27 2599 3753.13 2590.22 3744.07 2581.44 3735 2563.89 3735 2546.33 3735 2528.78 3735 2362 3735 2362 3735 2362 3771.27 2362 3771.27 2362 3771.27 2362 3762.2 2528.78 3762.2 2528.78 3762.2 2528.78 3762.2 2546.33 3762.2 2555.11 3771.27 2563.89 3780.33 2572.67 3789.4 2572.67 3798.47 2572.67 3807.53 2572.67 3816.6 2572.67 3825.67 2563.89 3834.73 2555.11 3834.73 2546.33 3834.73 2528.78 3843.8 2362 3843.8 2362 3843.8 2362 3871 2362 3871 2362 3871 2362L3871 2528.78Z" fill="#195294" fill-rule="evenodd"/><path d="M4037 2577.42 4008.24 2584.61 3921.95 2419.14 3943.52 2591.81 3907.57 2599 3886 2361.58 3921.95 2347.19 3993.86 2469.5 3972.29 2340 4001.05 2340 4037 2577.42Z" fill="#195294" fill-rule="evenodd"/><path d="M4130 2548.64 4093.93 2563 4029 2333.18 4057.86 2326 4130 2548.64Z" fill="#195294" fill-rule="evenodd"/><path d="M4209.13 2261 4245 2512.62 4216.3 2527 4080 2311.32 4108.7 2304.14 4209.13 2447.92 4180.43 2268.19 4209.13 2261Z" fill="#195294" fill-rule="evenodd"/><path d="M4453 2405.34 4338.09 2470 4216 2254.47 4323.73 2197 4338.09 2218.55 4259.09 2261.66 4295 2333.5 4374 2290.39 4381.18 2311.95 4316.55 2347.87 4359.64 2434.08 4438.64 2376.61 4453 2405.34Z" fill="#195294" fill-rule="evenodd"/><path d="M4582 2313.29C4554.89 2330.71 4554.89 2330.71 4554.89 2330.71 4473.56 2261 4473.56 2261 4473.56 2261 4446.44 2287.14 4446.44 2287.14 4446.44 2287.14 4509.7 2365.57 4509.7 2365.57 4509.7 2365.57 4482.59 2383 4482.59 2383 4482.59 2383 4338 2191.29 4338 2191.29 4338 2191.29 4383.19 2156.43 4383.19 2156.43 4383.19 2156.43 4401.26 2147.71 4419.33 2139 4437.41 2139 4482.59 2147.71 4500.67 2173.86 4500.67 2208.71 4500.67 2217.43 4500.67 2234.86 4491.63 2243.57L4582 2313.29ZM4428.37 2173.86C4410.3 2165.14 4392.22 2182.57 4383.19 2191.29 4428.37 2252.29 4428.37 2252.29 4428.37 2252.29 4446.44 2243.57 4446.44 2243.57 4464.52 2226.14 4464.52 2200 4455.48 2182.57 4428.37 2173.86" fill="#195294" fill-rule="evenodd"/><path d="M4658.71 2118.67C4711 2144.67 4693.57 2231.33 4632.57 2240 4615.14 2240 4597.71 2240 4589 2231.33 4597.71 2205.33 4597.71 2205.33 4597.71 2205.33 4606.43 2214 4615.14 2214 4623.86 2214 4667.43 2205.33 4667.43 2162 4641.29 2144.67 4632.57 2136 4623.86 2136 4615.14 2136 4580.29 2144.67 4562.86 2162 4536.71 2162 4501.86 2162 4475.71 2144.67 4467 2110 4467 2092.67 4475.71 2075.33 4484.43 2066.67 4501.86 2032 4536.71 2032 4562.86 2049.33 4554.14 2075.33 4554.14 2075.33 4554.14 2075.33 4536.71 2066.67 4510.57 2066.67 4501.86 2084 4493.14 2092.67 4493.14 2101.33 4493.14 2110 4501.86 2127.33 4510.57 2136 4528 2136 4562.86 2127.33 4580.29 2101.33 4615.14 2110 4623.86 2110 4641.29 2110 4658.71 2118.67" fill="#195294" fill-rule="evenodd"/><path d="M4769 2082.24 4747.42 2111 4546 1974.38 4560.39 1960 4769 2082.24Z" fill="#195294" fill-rule="evenodd"/><path d="M4661.14 1823.54 4639.56 1866.61 4841 1981.46 4819.42 2003 4625.17 1895.32 4603.58 1931.21 4582 1924.04 4632.36 1802 4661.14 1823.54Z" fill="#195294" fill-rule="evenodd"/><path d="M4697.33 1666 4819.17 1766.43 4898 1802.3 4883.67 1831 4812 1795.13 4640 1795.13 4654.33 1766.43 4769 1766.43 4690.17 1701.87 4697.33 1666Z" fill="#195294" fill-rule="evenodd"/><path d="M3060 2261.2C3042.57 2279.1 3025.14 2297 3007.71 2297 2990.29 2297 2972.86 2288.05 2955.43 2270.15 2946.71 2261.2 2938 2243.3 2938 2225.4 2938 2216.45 2938 2207.5 2946.71 2198.55 2972.86 2207.5 2972.86 2207.5 2972.86 2207.5 2964.14 2216.45 2964.14 2216.45 2964.14 2225.4 2964.14 2234.35 2972.86 2243.3 2972.86 2252.25 2981.57 2261.2 2990.29 2261.2 3007.71 2261.2 3016.43 2261.2 3025.14 2252.25 3042.57 2243.3 3155.86 2118 3155.86 2118 3155.86 2118 3182 2144.85 3182 2144.85 3182 2144.85L3060 2261.2Z" fill="#195294" fill-rule="evenodd"/><path d="M3469.64 2214.56C3390 2170.67 3390 2170.67 3390 2170.67 3390 2153.11 3390 2153.11 3390 2153.11 3425.4 2170.67 3425.4 2170.67 3425.4 2170.67 3478.49 2082.89 3478.49 2082.89 3478.49 2082.89 3443.09 2065.33 3443.09 2065.33 3443.09 2065.33 3451.94 2056.56 3451.94 2056.56 3451.94 2056.56 3460.79 2065.33 3469.64 2065.33 3478.49 2065.33 3487.34 2065.33 3487.34 2065.33 3496.19 2056.56 3513.88 2074.11 3513.88 2074.11 3513.88 2074.11 3443.09 2188.22 3443.09 2188.22 3443.09 2188.22 3478.49 2205.78 3478.49 2205.78 3478.49 2205.78L3469.64 2214.56ZM3717.41 2161.89C3717.41 2161.89 3717.41 2153.11 3708.56 2144.33 3708.56 2144.33 3699.71 2135.56 3682.01 2135.56 3673.16 2135.56 3664.31 2135.56 3655.47 2135.56 3646.62 2144.33 3646.62 2144.33 3637.77 2153.11 3637.77 2161.89 3637.77 2161.89 3646.62 2170.67 3646.62 2170.67 3655.47 2170.67 3655.47 2179.44 3664.31 2179.44 3664.31 2179.44 3673.16 2188.22 3682.01 2188.22 3682.01 2188.22 3690.86 2188.22 3699.71 2188.22 3708.56 2188.22 3708.56 2179.44 3717.41 2179.44 3717.41 2170.67 3717.41 2161.89M3708.56 2240.89C3708.56 2232.11 3708.56 2232.11 3708.56 2223.33 3699.71 2223.33 3690.86 2214.56 3682.01 2214.56 3682.01 2205.78 3682.01 2205.78 3673.16 2205.78 3664.31 2205.78 3664.31 2197 3655.47 2197 3646.62 2197 3637.77 2205.78 3628.92 2205.78 3628.92 2214.56 3620.07 2214.56 3620.07 2223.33 3620.07 2232.11 3620.07 2240.89 3628.92 2249.67 3637.77 2258.44 3646.62 2258.44 3655.47 2258.44 3673.16 2267.22 3682.01 2258.44 3690.86 2258.44 3699.71 2249.67 3708.56 2249.67 3708.56 2240.89M3655.47 2276C3646.62 2276 3637.77 2276 3628.92 2267.22 3620.07 2267.22 3611.22 2258.44 3602.37 2258.44 3593.52 2249.67 3593.52 2249.67 3593.52 2240.89 3593.52 2232.11 3584.67 2223.33 3593.52 2223.33 3593.52 2214.56 3593.52 2205.78 3602.37 2197 3611.22 2197 3620.07 2188.22 3637.77 2188.22 3637.77 2188.22 3637.77 2188.22 3637.77 2188.22 3628.92 2179.44 3620.07 2179.44 3611.22 2170.67 3611.22 2161.89 3611.22 2161.89 3611.22 2153.11 3611.22 2144.33 3620.07 2135.56 3637.77 2126.78 3646.62 2118 3664.31 2118 3690.86 2126.78 3708.56 2126.78 3726.26 2126.78 3735.1 2135.56 3743.95 2144.33 3752.8 2161.89 3743.95 2170.67 3743.95 2179.44 3743.95 2179.44 3735.1 2188.22 3726.26 2197 3717.41 2197 3708.56 2197 3708.56 2197 3708.56 2197 3708.56 2197 3717.41 2205.78 3726.26 2214.56 3735.1 2214.56 3735.1 2223.33 3743.95 2232.11 3735.1 2240.89 3735.1 2258.44 3726.26 2267.22 3708.56 2267.22 3690.86 2276 3673.16 2276 3655.47 2276M3947.48 2188.22C3947.48 2170.67 3938.63 2170.67 3938.63 2161.89 3938.63 2153.11 3929.78 2153.11 3929.78 2144.33 3920.93 2144.33 3920.93 2144.33 3912.08 2135.56 3912.08 2135.56 3903.23 2135.56 3903.23 2135.56 3885.53 2135.56 3876.69 2144.33 3867.84 2144.33 3858.99 2153.11 3858.99 2161.89 3858.99 2170.67 3858.99 2179.44 3858.99 2179.44 3858.99 2188.22 3867.84 2188.22 3867.84 2197 3876.69 2197 3876.69 2197 3885.53 2197 3885.53 2205.78 3894.38 2205.78 3894.38 2205.78 3903.23 2205.78 3912.08 2205.78 3912.08 2205.78 3920.93 2197 3929.78 2197 3938.63 2197 3938.63 2197 3947.48 2197 3947.48 2188.22 3947.48 2188.22 3947.48 2188.22 3947.48 2188.22 3947.48 2188.22M3832.44 2170.67C3832.44 2161.89 3832.44 2161.89 3832.44 2153.11 3841.29 2144.33 3841.29 2135.56 3850.14 2135.56 3858.99 2126.78 3858.99 2126.78 3876.69 2126.78 3885.53 2118 3894.38 2118 3903.23 2118 3912.08 2118 3920.93 2118 3929.78 2126.78 3938.63 2126.78 3947.48 2126.78 3947.48 2135.56 3956.33 2135.56 3965.17 2144.33 3965.17 2153.11 3974.02 2161.89 3974.02 2179.44 3974.02 2188.22 3974.02 2205.78 3974.02 2214.56 3965.17 2223.33 3965.17 2232.11 3956.33 2240.89 3947.48 2249.67 3938.63 2258.44 3929.78 2267.22 3920.93 2267.22 3903.23 2276 3894.38 2276 3876.69 2276 3867.84 2276 3867.84 2276 3858.99 2276 3858.99 2276 3850.14 2276 3850.14 2276 3850.14 2258.44 3850.14 2258.44 3850.14 2258.44 3850.14 2258.44 3850.14 2258.44 3850.14 2258.44 3850.14 2258.44 3858.99 2258.44 3858.99 2258.44 3867.84 2258.44 3867.84 2258.44 3876.69 2258.44 3894.38 2258.44 3912.08 2258.44 3920.93 2249.67 3938.63 2240.89 3938.63 2223.33 3938.63 2205.78 3938.63 2214.56 3929.78 2214.56 3920.93 2214.56 3912.08 2214.56 3903.23 2223.33 3894.38 2223.33 3885.53 2223.33 3876.69 2214.56 3876.69 2214.56 3867.84 2214.56 3858.99 2214.56 3850.14 2214.56 3841.29 2205.78 3841.29 2197 3832.44 2197 3832.44 2188.22 3832.44 2179.44 3832.44 2170.67M4151 2047.78C4151 2197 4151 2197 4151 2197 4124.45 2214.56 4124.45 2214.56 4124.45 2214.56 4124.45 2065.33 4124.45 2065.33 4124.45 2065.33 4035.97 2109.22 4035.97 2109.22 4035.97 2109.22 4027.12 2091.67 4027.12 2091.67 4027.12 2091.67 4142.15 2039 4142.15 2039 4142.15 2039L4151 2047.78Z" fill="#195294" fill-rule="evenodd"/><path d="M4205.36 783C4187 774.583 4196.18 766.167 4205.36 749.333 4205.36 740.917 4196.18 724.083 4196.18 707.25 4205.36 682 4242.09 698.833 4260.45 707.25 4260.45 707.25 4269.64 715.667 4269.64 724.083 4278.82 740.917 4288 766.167 4260.45 774.583 4242.09 783 4223.73 783 4205.36 783" fill="#195294" fill-rule="evenodd"/><path d="M3991.49 695.028C3991.49 695.028 3991.49 695.028 3991.49 695.028 3991.49 695.028 3991.49 695.028 3991.49 686.056 4000.41 686.056 4062.9 668.111 4062.9 668.111 4080.76 659.139 4098.61 650.167 4107.54 632.222 4062.9 632.222 4027.2 650.167 3982.56 641.194 3964.71 632.222 3955.78 623.25 3946.85 614.278 3946.85 614.278 3946.85 614.278 3946.85 614.278 3929 596.333 3929 578.389 3955.78 569.417 3991.49 587.361 4062.9 578.389 4098.61 569.417 4107.54 569.417 4134.32 569.417 4143.24 560.444 4161.1 515.583 4170.02 461.75 4187.88 407.917 4205.73 381 4223.59 407.917 4241.44 434.833 4241.44 434.833 4250.37 434.833 4250.37 443.805 4250.37 443.805 4250.37 443.805 4250.37 443.805 4259.29 461.75 4259.29 470.722 4241.44 479.694 4223.59 506.611 4214.66 533.528 4205.73 560.444 4232.51 560.444 4259.29 542.5 4286.07 551.472 4295 569.417 4286.07 578.389 4268.22 587.361 4250.37 587.361 4223.59 596.333 4187.88 596.333 4178.95 623.25 4161.1 650.167 4134.32 668.111 4134.32 677.083 4116.46 686.056 4116.46 686.056 4098.61 686.056 4080.76 695.028 4053.98 695.028 4000.41 704 4000.41 695.028 3991.49 695.028" fill="#195294" fill-rule="evenodd"/><path d="M3381.56 876C3363.69 876 3336.88 858.182 3319 849.273 3319 849.273 3319 840.364 3319 831.454 3354.75 786.909 3381.56 733.454 3408.38 680 3417.31 653.273 3417.31 626.545 3426.25 608.727 3426.25 608.727 3426.25 608.727 3426.25 599.818 3426.25 599.818 3426.25 599.818 3426.25 599.818 3435.19 590.909 3444.12 582 3453.06 599.818 3462 608.727 3444.12 626.545 3444.12 644.364 3444.12 671.091 3444.12 697.818 3435.19 724.545 3435.19 724.545 3435.19 724.545 3435.19 751.273 3426.25 769.091 3417.31 795.818 3417.31 813.636 3408.38 831.454 3408.38 858.182 3399.44 876 3390.5 876 3390.5 876 3381.56 876" fill="#195294" fill-rule="evenodd"/><path d="M3583.15 616.154C3556.85 625 3539.31 616.154 3521.77 598.461 3513 598.461 3521.77 589.615 3521.77 580.769 3521.77 580.769 3521.77 580.769 3530.54 571.923 3539.31 571.923 3539.31 571.923 3556.85 563.077 3565.62 554.231 3600.69 510 3618.23 518.846 3627 545.385 3609.46 598.461 3583.15 616.154" fill="#195294" fill-rule="evenodd"/><path d="M3355 653C3337.8 643.909 3320.6 598.455 3320.6 589.364 3312 562.091 3337.8 553 3363.6 562.091 3389.4 571.182 3398 580.273 3398 607.546 3380.8 634.818 3372.2 634.818 3355 653" fill="#195294" fill-rule="evenodd"/><path d="M3549.53 546C3540.47 537.118 3549.53 501.588 3540.47 501.588 3531.4 501.588 3531.4 510.47 3522.33 510.47 3504.2 510.47 3477 492.706 3477 474.941 3486.07 457.176 3477 466.059 3495.13 457.176 3513.27 439.412 3531.4 421.647 3540.47 412.765 3576.73 395 3594.87 403.882 3603.93 430.529 3613 457.176 3603.93 474.941 3594.87 492.706 3585.8 510.47 3567.67 528.235 3558.6 537.118 3558.6 546 3549.53 546 3549.53 546" fill="#195294" fill-rule="evenodd"/><path d="M3346.4 524C3337.8 524 3337.8 515.545 3337.8 507.091 3337.8 498.636 3329.2 490.182 3320.6 481.727 3312 456.364 3312 447.909 3320.6 431 3337.8 431 3398 439.455 3398 473.273 3389.4 490.182 3363.6 515.545 3346.4 524" fill="#195294" fill-rule="evenodd"/><path d="M3033.11 1359.97C3006.5 1378 2944.42 1368.98 2953.29 1332.92 2953.29 1323.91 2953.29 1314.89 2953.29 1314.89 2953.29 1314.89 2953.29 1314.89 2953.29 1314.89 2944.42 1269.82 2917.82 1233.76 2908.95 1197.7 2900.08 1188.68 2900.08 1179.67 2900.08 1161.64 2908.95 1161.64 2917.82 1170.65 2926.68 1179.67 2935.55 1179.67 2935.55 1170.65 2935.55 1161.64 2935.55 1134.59 2935.55 1107.55 2935.55 1080.5 2926.68 1071.48 2917.82 1062.47 2908.95 1062.47 2908.95 1071.48 2891.21 1116.56 2873.47 1089.52 2882.34 1071.48 2882.34 1044.44 2873.47 1026.41 2855.74 1008.38 2838 999.364 2838 990.349 2838 963.303 2873.47 963.303 2891.21 972.318 2908.95 972.318 2908.95 936.258 2926.68 990.349 2926.68 999.364 2935.55 999.364 2935.55 1008.38 2944.42 1008.38 2944.42 999.364 2944.42 999.364 2944.42 981.333 2944.42 954.288 2944.42 936.258 2926.68 918.227 2908.95 900.197 2900.08 873.152 2900.08 855.121 2926.68 837.091 2944.42 837.091 2953.29 819.061 2953.29 810.046 2953.29 792.015 2953.29 792.015 2953.29 792.015 2962.16 783 2971.03 783 2971.03 783 2979.89 792.015 2997.63 810.046 2962.16 882.167 2997.63 891.182 3006.5 882.167 2997.63 864.136 2988.76 855.121 2988.76 837.091 3015.37 819.061 3033.11 810.046 3068.58 810.046 3059.71 819.061 3059.71 846.106 3068.58 846.106 3068.58 855.121 3068.58 855.121 3104.05 882.167 3104.05 882.167 3148.39 918.227 3157.26 927.242 3166.13 936.258 3166.13 954.288 3166.13 954.288 3166.13 954.288 3166.13 963.303 3166.13 963.303 3166.13 963.303 3166.13 963.303 3175 972.318 3175 999.364 3157.26 999.364 3121.79 972.318 3077.45 945.273 3041.97 918.227 3041.97 918.227 3041.97 918.227 3041.97 918.227 3059.71 936.258 3077.45 981.333 3077.45 1008.38 3068.58 1017.39 3050.84 1026.41 3033.11 1026.41 3033.11 1017.39 3033.11 1017.39 3033.11 1008.38 3024.24 990.349 2988.76 972.318 2971.03 954.288 2962.16 972.318 2979.89 1008.38 2979.89 1026.41 2979.89 1035.42 2979.89 1053.45 2988.76 1062.47 2997.63 1071.48 3006.5 1089.52 3024.24 1098.53 3024.24 1107.55 3033.11 1116.56 3033.11 1125.58 3033.11 1125.58 3033.11 1125.58 3033.11 1134.59 3041.97 1143.61 3050.84 1179.67 3033.11 1179.67 3024.24 1179.67 3024.24 1179.67 3024.24 1179.67 3015.37 1152.62 2997.63 1134.59 2988.76 1125.58 2979.89 1143.61 2988.76 1161.64 2979.89 1179.67 2971.03 1188.68 2962.16 1197.7 2953.29 1197.7 2953.29 1197.7 2953.29 1197.7 2953.29 1197.7 2944.42 1197.7 2944.42 1197.7 2944.42 1206.71 2944.42 1215.73 2953.29 1224.74 2962.16 1233.76 2979.89 1269.82 3006.5 1305.88 3041.97 1341.94 3041.97 1350.95 3041.97 1350.95 3033.11 1359.97" fill="#195294" fill-rule="evenodd"/><path d="M2863.91 1199C2855.36 1199 2846.82 1190.22 2846.82 1181.44 2812.64 1172.67 2795.55 1163.89 2787 1137.56 2787 1137.56 2787 1137.56 2787 1128.78 2804.09 1128.78 2829.73 1120 2846.82 1120 2881 1128.78 2872.45 1172.67 2863.91 1199" fill="#195294" fill-rule="evenodd"/><path d="M2792.82 1120C2783.64 1120 2783.64 1120 2783.64 1120 2774.45 1110.7 2774.45 1110.7 2774.45 1101.4 2737.73 1101.4 2701 1082.8 2710.18 1045.6 2719.36 1036.3 2719.36 1045.6 2737.73 1045.6 2765.27 1045.6 2802 1027 2802 1073.5 2802 1082.8 2792.82 1101.4 2792.82 1120" fill="#195294" fill-rule="evenodd"/><path d="M4381 1152.73C4079.64 1152.73 4079.64 1152.73 4079.64 1152.73 3991 1152.73 3946.68 1242.29 3911.23 1322.89 3858.05 1206.47 3858.05 1206.47 3858.05 1206.47 3946.68 1170.65 3946.68 1170.65 3946.68 1170.65 3893.5 1125.87 3733.95 1099 3716.23 1170.65 3680.77 1322.89 3680.77 1322.89 3680.77 1322.89 3654.18 1251.25 3609.86 1152.73 3512.36 1152.73 3211 1152.73 3211 1152.73 3211 1152.73 3246.45 1224.38 3281.91 1251.25 3423.73 1242.29 3450.32 1296.03 3450.32 1296.03 3450.32 1296.03 3290.77 1296.03 3290.77 1296.03 3290.77 1296.03 3335.09 1385.58 3361.68 1385.58 3485.77 1385.58 3512.36 1439.32 3512.36 1439.32 3512.36 1439.32 3388.27 1448.27 3388.27 1448.27 3388.27 1448.27 3414.86 1502.01 3450.32 1528.88 3547.82 1528.88 3574.41 1582.61 3574.41 1582.61 3574.41 1582.61 3476.91 1582.61 3476.91 1582.61 3476.91 1582.61 3512.36 1645.3 3530.09 1672.17 3609.86 1663.21 3627.59 1716.95 3627.59 1716.95 3627.59 1716.95 3556.68 1716.95 3556.68 1716.95 3556.68 1716.95 3592.14 1788.59 3618.73 1788.59 3663.05 1797.55 3698.5 1797.55 3707.36 1869.19 3663.05 1896.06 3796 2111 3796 2111 3796 2111 3928.95 1896.06 3928.95 1896.06 3928.95 1896.06 3884.64 1869.19 3884.64 1797.55 3928.95 1797.55 3964.41 1788.59 3999.86 1788.59 4026.45 1716.95 3964.41 1716.95 3964.41 1716.95 3964.41 1716.95 3982.14 1663.21 3982.14 1663.21 3982.14 1663.21 4061.91 1672.17 4079.64 1636.35 4115.09 1582.61 4017.59 1582.61 4017.59 1582.61 4017.59 1582.61 4035.32 1528.88 4035.32 1528.88 4035.32 1528.88 4141.68 1528.88 4168.27 1502.01 4194.86 1448.27 4070.77 1439.32 4070.77 1439.32 4070.77 1439.32 4097.36 1385.58 4097.36 1385.58 4097.36 1385.58 4230.32 1385.58 4256.91 1385.58 4301.23 1296.03 4141.68 1296.03 4141.68 1296.03 4141.68 1296.03 4159.41 1242.29 4159.41 1242.29 4159.41 1242.29 4301.23 1251.25 4345.55 1224.38 4381 1152.73" fill="#195294" fill-rule="evenodd"/><path d="M4853.17 1008.15C4853.17 999.059 4853.17 999.059 4853.17 999.059 4853.17 989.971 4853.17 989.971 4853.17 980.882 4853.17 980.882 4844.35 980.882 4844.35 980.882 4835.52 980.882 4835.52 980.882 4835.52 980.882 4826.69 980.882 4826.69 980.882 4826.69 980.882 4826.69 971.794 4826.69 971.794 4826.69 971.794 4826.69 971.794 4826.69 971.794 4826.69 971.794 4817.87 962.706 4817.87 962.706 4817.87 962.706 4817.87 962.706 4817.87 962.706 4817.87 962.706 4826.69 962.706 4826.69 962.706 4826.69 962.706 4826.69 953.618 4835.52 953.618 4844.35 953.618 4844.35 953.618 4844.35 953.618 4844.35 953.618 4844.35 953.618 4844.35 953.618 4844.35 953.618 4853.17 944.529 4862 926.353 4862 908.176 4862 908.176 4853.17 908.176 4844.35 908.176 4835.52 908.176 4826.69 908.176 4809.04 917.265 4809.04 917.265 4800.21 917.265 4791.38 917.265 4782.56 917.265 4782.56 917.265 4782.56 917.265 4764.9 908.176 4764.9 908.176 4720.77 890 4720.77 890 4720.77 890 4720.77 899.088 4711.94 899.088 4711.94 908.176 4720.77 917.265 4720.77 917.265 4720.77 917.265 4720.77 917.265 4720.77 917.265 4720.77 917.265 4720.77 917.265 4720.77 917.265 4720.77 917.265 4720.77 917.265 4711.94 926.353 4711.94 926.353 4711.94 926.353 4711.94 926.353 4711.94 926.353 4711.94 926.353 4711.94 926.353 4711.94 926.353 4711.94 926.353 4711.94 926.353 4711.94 926.353 4711.94 926.353 4711.94 926.353 4711.94 935.441 4711.94 935.441 4711.94 935.441 4711.94 935.441 4711.94 935.441 4711.94 944.529 4711.94 944.529 4711.94 944.529 4703.12 953.618 4703.12 953.618 4703.12 953.618 4703.12 953.618 4703.12 953.618 4703.12 953.618 4703.12 953.618 4703.12 953.618 4703.12 953.618 4703.12 944.529 4703.12 944.529 4703.12 944.529 4694.29 944.529 4694.29 944.529 4685.46 935.441 4685.46 935.441 4685.46 935.441 4685.46 935.441 4676.63 935.441 4676.63 935.441 4667.81 935.441 4667.81 944.529 4667.81 944.529 4667.81 944.529 4667.81 953.618 4667.81 953.618 4667.81 953.618 4667.81 953.618 4667.81 962.706 4650.15 971.794 4641.33 962.706 4641.33 962.706 4641.33 962.706 4632.5 962.706 4632.5 971.794 4632.5 971.794 4632.5 980.882 4632.5 980.882 4650.15 980.882 4658.98 980.882 4658.98 989.971 4667.81 989.971 4667.81 989.971 4667.81 989.971 4667.81 989.971 4676.63 989.971 4676.63 989.971 4676.63 989.971 4685.46 989.971 4685.46 989.971 4685.46 989.971 4694.29 989.971 4694.29 989.971 4694.29 989.971 4694.29 999.059 4694.29 999.059 4694.29 999.059 4676.63 999.059 4676.63 999.059 4676.63 999.059 4676.63 999.059 4676.63 1008.15 4667.81 1008.15 4667.81 1017.24 4667.81 1017.24 4667.81 1017.24 4658.98 1026.32 4658.98 1026.32 4658.98 1026.32 4658.98 1017.24 4658.98 1017.24 4658.98 1017.24 4650.15 1017.24 4641.33 1017.24 4632.5 1017.24 4614.85 1008.15 4614.85 1008.15 4614.85 1008.15 4597.19 1008.15 4561.88 999.059 4535.4 989.971 4535.4 989.971 4526.58 989.971 4517.75 989.971 4508.92 980.882 4508.92 980.882 4508.92 980.882 4500.1 989.971 4500.1 989.971 4500.1 989.971 4508.92 989.971 4508.92 999.059 4517.75 999.059 4517.75 999.059 4517.75 999.059 4517.75 999.059 4526.58 1008.15 4526.58 1026.32 4544.23 1035.41 4553.06 1035.41 4561.88 1035.41 4579.54 1035.41 4606.02 1035.41 4650.15 1044.5 4676.63 1062.68 4685.46 1071.76 4685.46 1071.76 4685.46 1071.76 4685.46 1071.76 4685.46 1071.76 4685.46 1071.76 4685.46 1071.76 4685.46 1071.76 4685.46 1071.76 4685.46 1071.76 4685.46 1071.76 4685.46 1071.76 4676.63 1071.76 4676.63 1071.76 4676.63 1071.76 4667.81 1071.76 4667.81 1080.85 4667.81 1080.85 4658.98 1080.85 4658.98 1080.85 4658.98 1080.85 4632.5 1071.76 4632.5 1071.76 4614.85 1071.76 4606.02 1062.68 4597.19 1053.59 4588.37 1053.59 4588.37 1053.59 4579.54 1062.68 4570.71 1062.68 4570.71 1062.68 4570.71 1062.68 4570.71 1062.68 4570.71 1062.68 4570.71 1062.68 4570.71 1062.68 4570.71 1071.76 4570.71 1071.76 4570.71 1071.76 4561.88 1062.68 4561.88 1062.68 4561.88 1062.68 4561.88 1062.68 4561.88 1062.68 4553.06 1062.68 4544.23 1062.68 4535.4 1053.59 4526.58 1053.59 4491.27 1044.5 4464.79 1035.41 4438.31 1017.24 4429.48 1008.15 4429.48 1008.15 4420.65 999.059 4420.65 999.059 4420.65 999.059 4420.65 999.059 4420.65 999.059 4420.65 999.059 4420.65 999.059 4420.65 989.971 4420.65 989.971 4420.65 989.971 4411.83 989.971 4411.83 999.059 4403 999.059 4403 1017.24 4420.65 1062.68 4429.48 1071.76 4438.31 1071.76 4447.13 1080.85 4455.96 1080.85 4473.62 1080.85 4500.1 1089.94 4508.92 1099.03 4517.75 1099.03 4517.75 1099.03 4517.75 1099.03 4517.75 1099.03 4517.75 1099.03 4517.75 1099.03 4517.75 1099.03 4517.75 1099.03 4517.75 1099.03 4517.75 1108.12 4517.75 1108.12 4517.75 1108.12 4508.92 1117.21 4500.1 1126.29 4491.27 1126.29 4491.27 1135.38 4491.27 1135.38 4491.27 1135.38 4491.27 1135.38 4482.44 1135.38 4482.44 1135.38 4482.44 1135.38 4482.44 1135.38 4482.44 1135.38 4482.44 1144.47 4473.62 1144.47 4473.62 1144.47 4464.79 1144.47 4447.13 1135.38 4438.31 1126.29 4438.31 1126.29 4429.48 1126.29 4429.48 1126.29 4429.48 1126.29 4429.48 1126.29 4429.48 1126.29 4438.31 1153.56 4455.96 1171.74 4482.44 1189.91 4482.44 1199 4482.44 1199 4482.44 1199 4491.27 1199 4491.27 1199 4491.27 1199 4491.27 1199 4491.27 1199 4491.27 1199 4508.92 1199 4535.4 1171.74 4544.23 1153.56 4544.23 1153.56 4553.06 1144.47 4553.06 1144.47 4561.88 1144.47 4561.88 1144.47 4561.88 1144.47 4570.71 1135.38 4570.71 1135.38 4570.71 1135.38 4570.71 1135.38 4570.71 1135.38 4570.71 1135.38 4588.37 1135.38 4597.19 1135.38 4606.02 1144.47 4614.85 1144.47 4623.67 1126.29 4623.67 1117.21 4623.67 1117.21 4623.67 1117.21 4623.67 1117.21 4614.85 1108.12 4606.02 1099.03 4597.19 1099.03 4597.19 1099.03 4597.19 1099.03 4597.19 1099.03 4597.19 1089.94 4597.19 1089.94 4597.19 1089.94 4606.02 1080.85 4606.02 1080.85 4606.02 1080.85 4606.02 1071.76 4606.02 1071.76 4606.02 1071.76 4614.85 1071.76 4614.85 1071.76 4614.85 1071.76 4632.5 1080.85 4650.15 1089.94 4667.81 1089.94 4685.46 1099.03 4685.46 1099.03 4685.46 1099.03 4694.29 1099.03 4694.29 1099.03 4694.29 1099.03 4703.12 1108.12 4711.94 1117.21 4720.77 1117.21 4720.77 1117.21 4729.6 1117.21 4729.6 1117.21 4738.42 1099.03 4747.25 1089.94 4747.25 1080.85 4747.25 1080.85 4747.25 1080.85 4747.25 1080.85 4747.25 1080.85 4756.08 1080.85 4756.08 1080.85 4747.25 1080.85 4747.25 1080.85 4747.25 1080.85 4747.25 1071.76 4747.25 1071.76 4747.25 1071.76 4747.25 1071.76 4756.08 1071.76 4756.08 1071.76 4782.56 1062.68 4817.87 1044.5 4844.35 1035.41 4853.17 1026.32 4862 1026.32 4853.17 1017.24 4853.17 1008.15 4853.17 1008.15 4853.17 1008.15M4729.6 1026.32C4738.42 1017.24 4738.42 1017.24 4738.42 1017.24 4747.25 1008.15 4747.25 1008.15 4747.25 1008.15 4747.25 1008.15 4747.25 999.059 4738.42 999.059 4738.42 999.059 4738.42 999.059 4738.42 999.059 4738.42 999.059 4738.42 999.059 4738.42 999.059 4729.6 999.059 4729.6 999.059 4729.6 999.059 4720.77 989.971 4720.77 989.971 4720.77 989.971 4720.77 989.971 4720.77 989.971 4720.77 989.971 4729.6 980.882 4729.6 980.882 4729.6 980.882 4720.77 980.882 4720.77 980.882 4720.77 980.882 4729.6 980.882 4729.6 980.882 4729.6 980.882 4756.08 971.794 4756.08 971.794 4756.08 971.794 4756.08 971.794 4756.08 971.794 4756.08 971.794 4764.9 971.794 4764.9 971.794 4764.9 971.794 4764.9 980.882 4782.56 989.971 4782.56 1008.15 4782.56 1017.24 4782.56 1017.24 4782.56 1017.24 4773.73 1026.32 4756.08 1035.41 4738.42 1035.41 4738.42 1035.41 4738.42 1035.41 4738.42 1035.41 4738.42 1026.32 4738.42 1026.32 4738.42 1026.32 4729.6 1026.32 4729.6 1026.32 4729.6 1026.32Z" fill="#195294" fill-rule="evenodd"/><path d="M4600 976C4600 976 4591 966.933 4582 966.933 4582 948.8 4591 939.733 4600 921.6 4600 921.6 4609 912.533 4609 912.533 4609 912.533 4609 912.533 4609 912.533 4609 903.467 4609 903.467 4609 903.467 4618 903.467 4618 894.4 4618 885.333 4618 885.333 4618 876.267 4627 876.267 4627 858.133 4636 840 4645 840 4645 840 4654 840 4654 849.067 4654 849.067 4654 849.067 4654 858.133 4654 858.133 4654 858.133 4654 858.133 4654 867.2 4654 867.2 4654 867.2 4654 885.333 4654 894.4 4654 903.467 4654 912.533 4654 912.533 4654 912.533 4654 912.533 4654 921.6 4654 921.6 4645 939.733 4645 948.8 4636 957.867 4627 966.933 4627 966.933 4627 966.933 4627 966.933 4627 966.933 4627 966.933 4618 966.933 4609 976 4609 976L4600 976Z" fill="#195294" fill-rule="evenodd"/><path d="M4600 976C4609 976 4609 976 4609 976 4609 976 4618 966.933 4627 966.933 4627 966.933 4627 966.933 4627 966.933 4636 957.867 4636 957.867 4636 957.867 4645 948.8 4645 930.667 4654 921.6 4654 921.6 4654 912.533 4654 912.533 4654 903.467 4654 903.467 4654 903.467 4654 894.4 4654 885.333 4654 867.2 4654 867.2 4654 867.2 4654 858.133 4654 858.133 4654 858.133 4654 858.133 4654 858.133 4654 858.133 4654 858.133 4654 849.067 4654 849.067 4654 849.067 4654 840 4645 840 4645 840 4636 840 4627 858.133 4627 876.267 4627 876.267 4618 885.333 4618 885.333 4618 894.4 4618 903.467 4609 903.467 4609 912.533 4609 912.533 4609 912.533 4609 912.533 4609 912.533 4609 912.533 4609 912.533 4600 921.6 4600 921.6 4591 939.733 4582 948.8 4582 966.933 4591 966.933 4600 976 4600 976" fill="#195294" fill-rule="evenodd"/><path d="M4535.5 955C4535.5 955 4527 945.714 4518.5 945.714 4510 917.857 4544 890 4552.5 890 4552.5 890 4561 899.286 4561 899.286 4561 908.571 4561 927.143 4552.5 936.428 4544 945.714 4535.5 955 4535.5 955Z" fill="#195294" fill-rule="evenodd"/><path d="M4535.5 955C4535.5 955 4535.5 955 4535.5 955 4535.5 955 4544 945.714 4552.5 936.428 4561 927.143 4561 908.571 4561 899.286 4561 899.286 4552.5 890 4552.5 890 4544 890 4510 917.857 4518.5 945.714 4527 945.714 4535.5 955 4535.5 955" fill="#195294" fill-rule="evenodd"/></g></svg>